<svg width="191" height="45" viewBox="0 0 191 45" fill="none" xmlns="http://www.w3.org/2000/svg">
<rect width="189.16" height="45" transform="translate(0.919922)" fill="#F4F4F4"/>
<path d="M34.8591 21.5226V31.8376C34.8591 32.1321 34.8011 32.4237 34.6884 32.6957C34.5757 32.9678 34.4105 33.215 34.2023 33.4232C33.9941 33.6314 33.7469 33.7966 33.4748 33.9093C33.2028 34.022 32.9112 34.08 32.6167 34.08H19.1623C18.5676 34.08 17.9972 33.8437 17.5767 33.4232C17.1562 33.0027 16.9199 32.4323 16.9199 31.8376V18.3832C16.9199 17.7885 17.1562 17.2181 17.5767 16.7976C17.9972 16.3771 18.5676 16.1408 19.1623 16.1408H28.5512" stroke="#FFB342" stroke-width="2" stroke-linecap="round" stroke-linejoin="round"/>
<path d="M38.8457 12.223C38.7614 12.1303 38.6592 12.0557 38.5452 12.0037C38.4312 11.9517 38.3079 11.9233 38.1827 11.9203C38.0574 11.9172 37.9328 11.9396 37.8165 11.9861C37.7002 12.0326 37.5944 12.1022 37.5057 12.1906L36.7919 12.901C36.7054 12.9875 36.6568 13.1049 36.6568 13.2273C36.6568 13.3497 36.7054 13.467 36.7919 13.5536L37.4463 14.2068C37.4892 14.2499 37.5402 14.2841 37.5963 14.3074C37.6525 14.3308 37.7127 14.3428 37.7735 14.3428C37.8343 14.3428 37.8945 14.3308 37.9507 14.3074C38.0068 14.2841 38.0578 14.2499 38.1007 14.2068L38.7967 13.5144C39.1487 13.163 39.1816 12.5905 38.8457 12.223ZM35.3486 14.3436L24.9311 24.7418C24.868 24.8047 24.822 24.8828 24.7978 24.9686L24.3159 26.4037C24.3044 26.4426 24.3036 26.484 24.3136 26.5233C24.3236 26.5627 24.344 26.5986 24.3727 26.6274C24.4014 26.6561 24.4374 26.6765 24.4768 26.6865C24.5161 26.6965 24.5575 26.6957 24.5964 26.6841L26.0305 26.2023C26.1162 26.1781 26.1943 26.1322 26.2573 26.069L36.6563 15.6511C36.7525 15.5539 36.8065 15.4227 36.8065 15.2859C36.8065 15.1491 36.7525 15.0178 36.6563 14.9206L36.0821 14.3436C35.9847 14.2465 35.8528 14.192 35.7153 14.192C35.5779 14.192 35.446 14.2465 35.3486 14.3436Z" fill="#FFB342"/>
<path d="M49.5183 30V16.9091H54.3123C55.2413 16.9091 56.0105 17.0625 56.6199 17.3693C57.2292 17.6719 57.6852 18.0831 57.9877 18.603C58.2903 19.1186 58.4416 19.7003 58.4416 20.348C58.4416 20.8935 58.3414 21.3537 58.1412 21.7287C57.9409 22.0994 57.6724 22.3977 57.3358 22.6236C57.0034 22.8452 56.6369 23.0071 56.2363 23.1094V23.2372C56.671 23.2585 57.095 23.3991 57.5083 23.6591C57.926 23.9148 58.2711 24.2791 58.5439 24.7521C58.8166 25.2251 58.9529 25.8004 58.9529 26.478C58.9529 27.147 58.7953 27.7479 58.4799 28.2805C58.1689 28.8089 57.6873 29.2287 57.0353 29.5398C56.3833 29.8466 55.5502 30 54.536 30H49.5183ZM51.4934 28.3061H54.3443C55.2903 28.3061 55.9679 28.1229 56.377 27.7564C56.786 27.3899 56.9906 26.9318 56.9906 26.3821C56.9906 25.9687 56.8862 25.5895 56.6774 25.2443C56.4686 24.8991 56.1703 24.6243 55.7825 24.4197C55.399 24.2152 54.943 24.1129 54.4146 24.1129H51.4934V28.3061ZM51.4934 22.5724H54.1397C54.5829 22.5724 54.9814 22.4872 55.3351 22.3168C55.693 22.1463 55.9764 21.9077 56.1852 21.6009C56.3983 21.2898 56.5048 20.9233 56.5048 20.5014C56.5048 19.9602 56.3152 19.5064 55.9359 19.1399C55.5566 18.7734 54.975 18.5902 54.1909 18.5902H51.4934V22.5724ZM63.0534 16.9091V30H61.1422V16.9091H63.0534ZM69.7603 30.1982C68.8398 30.1982 68.0366 29.9872 67.3505 29.5653C66.6644 29.1435 66.1317 28.5533 65.7525 27.7947C65.3732 27.0362 65.1836 26.1499 65.1836 25.1357C65.1836 24.1172 65.3732 23.2266 65.7525 22.4638C66.1317 21.701 66.6644 21.1087 67.3505 20.6868C68.0366 20.2649 68.8398 20.054 69.7603 20.054C70.6808 20.054 71.484 20.2649 72.1701 20.6868C72.8562 21.1087 73.3888 21.701 73.7681 22.4638C74.1474 23.2266 74.337 24.1172 74.337 25.1357C74.337 26.1499 74.1474 27.0362 73.7681 27.7947C73.3888 28.5533 72.8562 29.1435 72.1701 29.5653C71.484 29.9872 70.6808 30.1982 69.7603 30.1982ZM69.7667 28.5938C70.3633 28.5938 70.8576 28.4361 71.2496 28.1207C71.6417 27.8054 71.9315 27.3857 72.119 26.8615C72.3107 26.3374 72.4066 25.7599 72.4066 25.1293C72.4066 24.5028 72.3107 23.9276 72.119 23.4034C71.9315 22.875 71.6417 22.451 71.2496 22.1314C70.8576 21.8118 70.3633 21.652 69.7667 21.652C69.1658 21.652 68.6673 21.8118 68.271 22.1314C67.8789 22.451 67.587 22.875 67.3952 23.4034C67.2077 23.9276 67.114 24.5028 67.114 25.1293C67.114 25.7599 67.2077 26.3374 67.3952 26.8615C67.587 27.3857 67.8789 27.8054 68.271 28.1207C68.6673 28.4361 69.1658 28.5938 69.7667 28.5938ZM80.5868 33.8864C79.807 33.8864 79.1358 33.7841 78.5733 33.5795C78.0151 33.375 77.5591 33.1044 77.2054 32.7678C76.8517 32.4311 76.5875 32.0625 76.4128 31.6619L78.0556 30.9844C78.1706 31.1719 78.324 31.37 78.5158 31.5788C78.7118 31.7919 78.976 31.973 79.3084 32.1222C79.6451 32.2713 80.0776 32.3459 80.606 32.3459C81.3304 32.3459 81.9292 32.169 82.4022 31.8153C82.8752 31.4659 83.1117 30.9077 83.1117 30.1406V28.2102H82.9902C82.8752 28.419 82.709 28.6513 82.4917 28.907C82.2786 29.1626 81.9846 29.3842 81.6096 29.5717C81.2346 29.7592 80.7466 29.853 80.1458 29.853C79.3702 29.853 78.6713 29.6719 78.0492 29.3097C77.4313 28.9432 76.9412 28.4041 76.579 27.6925C76.2211 26.9766 76.0421 26.0966 76.0421 25.0526C76.0421 24.0085 76.2189 23.1136 76.5726 22.3679C76.9306 21.6222 77.4206 21.0511 78.0428 20.6548C78.665 20.2543 79.3702 20.054 80.1586 20.054C80.7679 20.054 81.2601 20.1562 81.6351 20.3608C82.0101 20.5611 82.302 20.7955 82.5108 21.0639C82.7239 21.3324 82.888 21.5689 83.003 21.7734H83.1436V20.1818H85.0165V30.2173C85.0165 31.0611 84.8205 31.7536 84.4284 32.2947C84.0364 32.8359 83.5059 33.2365 82.8368 33.4964C82.1721 33.7564 81.4221 33.8864 80.5868 33.8864ZM80.5676 28.2678C81.1174 28.2678 81.5819 28.1399 81.9611 27.8842C82.3446 27.6243 82.6344 27.2536 82.8304 26.772C83.0307 26.2862 83.1309 25.7045 83.1309 25.027C83.1309 24.3665 83.0328 23.7848 82.8368 23.282C82.6408 22.7791 82.3532 22.3871 81.9739 22.1058C81.5946 21.8203 81.1259 21.6776 80.5676 21.6776C79.9924 21.6776 79.513 21.8267 79.1294 22.125C78.7459 22.419 78.4561 22.8196 78.2601 23.3267C78.0684 23.8338 77.9725 24.4006 77.9725 25.027C77.9725 25.6705 78.0705 26.2351 78.2665 26.7209C78.4625 27.2067 78.7523 27.5859 79.1358 27.8587C79.5236 28.1314 80.0009 28.2678 80.5676 28.2678ZM96.1531 30.1854C95.2752 30.1854 94.5188 30.0256 93.8839 29.706C93.2532 29.3864 92.7674 28.9517 92.4265 28.402C92.0856 27.848 91.9151 27.2216 91.9151 26.5227C91.9151 25.9901 92.0259 25.517 92.2475 25.1037C92.4691 24.6861 92.7781 24.3004 93.1744 23.9467C93.5707 23.593 94.0288 23.2372 94.5487 22.8793L96.658 21.3899C97.016 21.1555 97.2951 20.9084 97.4954 20.6484C97.6957 20.3842 97.7958 20.0582 97.7958 19.6705C97.7958 19.3636 97.6637 19.0696 97.3995 18.7884C97.1353 18.5071 96.7816 18.3665 96.3384 18.3665C96.0316 18.3665 95.761 18.4411 95.5266 18.5902C95.2965 18.7393 95.1154 18.9311 94.9833 19.1655C94.8555 19.3956 94.7915 19.6385 94.7915 19.8942C94.7915 20.1925 94.8725 20.4929 95.0344 20.7955C95.2006 21.098 95.4137 21.4112 95.6737 21.7351C95.9336 22.0547 96.2063 22.3871 96.4918 22.7322L102.571 30H100.41L95.3796 24.0874C94.9577 23.5888 94.5657 23.12 94.2035 22.6811C93.8413 22.2379 93.5472 21.7905 93.3214 21.3388C93.0998 20.8828 92.989 20.3906 92.989 19.8622C92.989 19.2614 93.1254 18.7287 93.3981 18.2642C93.6751 17.7955 94.0607 17.429 94.555 17.1648C95.0494 16.9006 95.6289 16.7685 96.2937 16.7685C96.967 16.7685 97.5444 16.9006 98.0259 17.1648C98.5117 17.4247 98.8846 17.772 99.1445 18.2067C99.4087 18.6371 99.5408 19.108 99.5408 19.6193C99.5408 20.2415 99.3853 20.7912 99.0742 21.2685C98.7674 21.7415 98.3434 22.1761 97.8022 22.5724L95.1751 24.5092C94.6637 24.8842 94.3079 25.255 94.1076 25.6214C93.9116 25.9837 93.8136 26.267 93.8136 26.4716C93.8136 26.8466 93.9094 27.1939 94.1012 27.5135C94.2972 27.8331 94.57 28.0888 94.9194 28.2805C95.2731 28.4723 95.6864 28.5682 96.1594 28.5682C96.6452 28.5682 97.1183 28.4638 97.5785 28.255C98.043 28.0419 98.4627 27.7372 98.8377 27.3409C99.217 26.9446 99.5174 26.4695 99.739 25.9155C99.9606 25.3615 100.071 24.7415 100.071 24.0554H101.797C101.797 24.8991 101.701 25.6129 101.51 26.1967C101.318 26.7763 101.086 27.2493 100.813 27.6158C100.544 27.978 100.291 28.2614 100.052 28.4659C99.9755 28.5341 99.9031 28.6023 99.8349 28.6705C99.7667 28.7386 99.6942 28.8068 99.6175 28.875C99.1744 29.3224 98.6374 29.6527 98.0067 29.8658C97.3803 30.0788 96.7624 30.1854 96.1531 30.1854ZM110.091 30H107.994L112.705 16.9091H114.987L119.698 30H117.602L113.901 19.2869H113.798L110.091 30ZM110.442 24.8736H117.244V26.5355H110.442V24.8736ZM121.435 30V20.1818H123.282V21.7415H123.385C123.564 21.2131 123.879 20.7976 124.331 20.495C124.787 20.1882 125.302 20.0348 125.878 20.0348C125.997 20.0348 126.138 20.0391 126.3 20.0476C126.466 20.0561 126.596 20.0668 126.689 20.0795V21.9077C126.613 21.8864 126.476 21.8629 126.28 21.8374C126.084 21.8075 125.888 21.7926 125.692 21.7926C125.241 21.7926 124.838 21.8885 124.484 22.0803C124.135 22.2678 123.858 22.5298 123.653 22.8665C123.449 23.1989 123.346 23.5781 123.346 24.0043V30H121.435ZM133.507 20.1818V21.7159H128.144V20.1818H133.507ZM129.582 17.8295H131.493V27.1172C131.493 27.4879 131.548 27.767 131.659 27.9545C131.77 28.1378 131.913 28.2635 132.088 28.3317C132.267 28.3956 132.46 28.4276 132.669 28.4276C132.823 28.4276 132.957 28.4169 133.072 28.3956C133.187 28.3743 133.276 28.3572 133.34 28.3445L133.686 29.9233C133.575 29.9659 133.417 30.0085 133.213 30.0511C133.008 30.098 132.752 30.1236 132.445 30.1278C131.943 30.1364 131.474 30.0469 131.039 29.8594C130.605 29.6719 130.253 29.3821 129.985 28.9901C129.716 28.598 129.582 28.1058 129.582 27.5135V17.8295ZM135.621 30V20.1818H137.532V30H135.621ZM136.586 18.6669C136.254 18.6669 135.968 18.5561 135.729 18.3345C135.495 18.1087 135.378 17.8402 135.378 17.5291C135.378 17.2138 135.495 16.9453 135.729 16.7237C135.968 16.4979 136.254 16.3849 136.586 16.3849C136.918 16.3849 137.202 16.4979 137.436 16.7237C137.675 16.9453 137.794 17.2138 137.794 17.5291C137.794 17.8402 137.675 18.1087 137.436 18.3345C137.202 18.5561 136.918 18.6669 136.586 18.6669ZM144.239 30.1982C143.289 30.1982 142.47 29.983 141.784 29.5526C141.102 29.1179 140.578 28.5192 140.212 27.7564C139.845 26.9936 139.662 26.12 139.662 25.1357C139.662 24.1385 139.85 23.2585 140.225 22.4957C140.6 21.7287 141.128 21.13 141.81 20.6996C142.492 20.2692 143.295 20.054 144.22 20.054C144.965 20.054 145.63 20.1925 146.214 20.4695C146.798 20.7422 147.269 21.1257 147.627 21.62C147.989 22.1143 148.204 22.6918 148.272 23.3523H146.412C146.31 22.892 146.075 22.4957 145.709 22.1634C145.347 21.831 144.861 21.6648 144.252 21.6648C143.719 21.6648 143.252 21.8054 142.852 22.0866C142.455 22.3636 142.146 22.7599 141.925 23.2756C141.703 23.7869 141.593 24.392 141.593 25.0909C141.593 25.8068 141.701 26.4247 141.919 26.9446C142.136 27.4645 142.443 27.8672 142.839 28.1527C143.24 28.4382 143.71 28.581 144.252 28.581C144.614 28.581 144.942 28.5149 145.236 28.3828C145.534 28.2464 145.784 28.0526 145.984 27.8011C146.188 27.5497 146.331 27.2472 146.412 26.8935H148.272C148.204 27.5284 147.997 28.0952 147.652 28.5938C147.307 29.0923 146.845 29.4844 146.265 29.7699C145.69 30.0554 145.014 30.1982 144.239 30.1982ZM152.227 16.9091V30H150.316V16.9091H152.227ZM159.03 30.1982C158.063 30.1982 157.23 29.9915 156.531 29.5781C155.836 29.1605 155.299 28.5746 154.92 27.8203C154.545 27.0618 154.357 26.1733 154.357 25.1548C154.357 24.1491 154.545 23.2628 154.92 22.4957C155.299 21.7287 155.828 21.13 156.505 20.6996C157.187 20.2692 157.984 20.054 158.896 20.054C159.45 20.054 159.987 20.1456 160.507 20.3288C161.026 20.5121 161.493 20.7997 161.906 21.1918C162.32 21.5838 162.646 22.093 162.884 22.7195C163.123 23.3416 163.242 24.098 163.242 24.9886V25.6662H155.438V24.2344H161.369C161.369 23.7315 161.267 23.2862 161.063 22.8984C160.858 22.5064 160.57 22.1974 160.2 21.9716C159.833 21.7457 159.403 21.6328 158.909 21.6328C158.372 21.6328 157.903 21.7649 157.502 22.0291C157.106 22.2891 156.799 22.63 156.582 23.0518C156.369 23.4695 156.262 23.9233 156.262 24.4134V25.532C156.262 26.1882 156.377 26.7464 156.607 27.2067C156.842 27.6669 157.168 28.0185 157.585 28.2614C158.003 28.5 158.491 28.6193 159.049 28.6193C159.411 28.6193 159.742 28.5682 160.04 28.4659C160.338 28.3594 160.596 28.2017 160.813 27.9929C161.031 27.7841 161.197 27.5263 161.312 27.2195L163.121 27.5455C162.976 28.0781 162.716 28.5447 162.341 28.9453C161.97 29.3416 161.504 29.6506 160.941 29.8722C160.383 30.0895 159.746 30.1982 159.03 30.1982ZM172.72 22.5788L170.988 22.8857C170.915 22.6641 170.8 22.4531 170.643 22.2528C170.489 22.0526 170.281 21.8885 170.016 21.7607C169.752 21.6328 169.422 21.5689 169.026 21.5689C168.484 21.5689 168.033 21.6903 167.67 21.9332C167.308 22.1719 167.127 22.4808 167.127 22.8601C167.127 23.1882 167.249 23.4524 167.491 23.6527C167.734 23.853 168.126 24.017 168.668 24.1449L170.227 24.5028C171.131 24.7116 171.804 25.0334 172.247 25.468C172.69 25.9027 172.912 26.4673 172.912 27.1619C172.912 27.75 172.741 28.2741 172.401 28.7344C172.064 29.1903 171.593 29.5483 170.988 29.8082C170.387 30.0682 169.69 30.1982 168.898 30.1982C167.798 30.1982 166.901 29.9638 166.207 29.495C165.512 29.022 165.086 28.3509 164.928 27.4815L166.776 27.2003C166.891 27.6818 167.127 28.0462 167.485 28.2933C167.843 28.5362 168.31 28.6577 168.885 28.6577C169.511 28.6577 170.012 28.5277 170.387 28.2678C170.762 28.0036 170.95 27.6818 170.95 27.3026C170.95 26.9957 170.835 26.7379 170.604 26.5291C170.379 26.3203 170.031 26.1626 169.562 26.0561L167.901 25.6918C166.984 25.483 166.307 25.1506 165.868 24.6946C165.433 24.2386 165.216 23.6612 165.216 22.9624C165.216 22.3828 165.378 21.8757 165.702 21.4411C166.026 21.0064 166.473 20.6676 167.044 20.4247C167.615 20.1776 168.269 20.054 169.006 20.054C170.067 20.054 170.903 20.2841 171.512 20.7443C172.121 21.2003 172.524 21.8118 172.72 22.5788Z" fill="#1C2752"/>
</svg>
